<svg width="525" height="814" viewBox="0 0 525 814" fill="none" xmlns="http://www.w3.org/2000/svg">
<path d="M524.572 489.447C524.572 813.771 481.615 813.771 267.117 813.771C52.6193 813.771 -0.000147006 813.771 3.08025e-10 489.447C0.000147007 165.122 78.085 80 267.117 80C456.149 80 524.572 165.122 524.572 489.447Z" fill="white"/>
<circle cx="357.362" cy="267.256" r="43.2556" fill="black"/>
<circle cx="166.256" cy="267.256" r="43.2556" fill="black"/>
<path d="M425.892 558.822C410.201 566.965 391.258 566.509 376.061 557.478V557.478C369.439 553.544 363.792 548.164 359.541 541.74L354.654 534.355C347.31 523.257 342.524 510.666 340.642 497.491L338.622 483.354C337.546 475.824 335.396 468.487 332.236 461.567L323.417 442.253C320.507 435.879 326.958 429.26 333.404 432.005L338.446 434.153C346.351 437.52 355.379 436.98 362.827 432.694L365.893 430.929C373.006 426.836 381.821 427.115 388.661 431.65V431.65C395.849 436.416 405.181 436.462 412.416 431.767L412.817 431.507C419.707 427.036 428.494 426.698 435.708 430.627L439.263 432.563C447.286 436.933 456.893 437.293 465.22 433.536L468.209 432.187C474.26 429.458 480.444 435.724 477.635 441.738L468.73 460.804C465.267 468.218 463.044 476.15 462.15 484.283L460.156 502.432C459.062 512.382 456.039 522.023 451.255 530.815L447.549 537.625C442.629 546.668 435.029 554.08 425.892 558.822V558.822Z" fill="#C0820C"/>
<path d="M425.892 558.822C410.201 566.965 391.258 566.509 376.061 557.478V557.478C369.439 553.544 363.792 548.164 359.541 541.74L354.654 534.355C347.31 523.257 342.524 510.666 340.642 497.491L338.622 483.354C337.546 475.824 335.396 468.487 332.236 461.567L323.417 442.253C320.507 435.879 326.958 429.26 333.404 432.005L338.446 434.153C346.351 437.52 355.379 436.98 362.827 432.694L365.893 430.929C373.006 426.836 381.821 427.115 388.661 431.65V431.65C395.849 436.416 405.181 436.462 412.416 431.767L412.817 431.507C419.707 427.036 428.494 426.698 435.708 430.627L439.263 432.563C447.286 436.933 456.893 437.293 465.22 433.536L468.209 432.187C474.26 429.458 480.444 435.724 477.635 441.738L468.73 460.804C465.267 468.218 463.044 476.15 462.15 484.283L460.156 502.432C459.062 512.382 456.039 522.023 451.255 530.815L447.549 537.625C442.629 546.668 435.029 554.08 425.892 558.822V558.822Z" fill="#C0820C"/>
<path d="M374.881 526.014L371.399 520.74C366.479 513.292 363.274 504.844 362.014 496.007L361.1 489.593C359.944 481.488 357.634 473.59 354.239 466.14L348.065 452.591C347.986 452.418 347.992 452.31 348.006 452.239C348.025 452.147 348.079 452.033 348.18 451.928C348.282 451.824 348.395 451.768 348.487 451.747C348.558 451.731 348.666 451.722 348.84 451.797L355.613 454.687C362.233 457.512 369.795 457.059 376.03 453.464L378.203 452.211C382.096 449.966 386.924 450.119 390.667 452.606C396.926 456.765 405.059 456.805 411.359 452.708L411.643 452.523C415.45 450.048 420.309 449.861 424.295 452.036L426.815 453.411C433.468 457.042 441.439 457.341 448.345 454.219L453.498 451.89C453.57 451.857 453.615 451.85 453.637 451.847C453.66 451.845 453.678 451.846 453.698 451.85C453.741 451.859 453.812 451.89 453.882 451.961C453.952 452.032 453.982 452.104 453.991 452.147C453.995 452.166 453.996 452.185 453.993 452.208C453.991 452.229 453.982 452.275 453.949 452.346L447.849 465.431C444.152 473.364 441.779 481.848 440.825 490.548L439.829 499.627C439.104 506.236 437.099 512.64 433.927 518.483L431.28 523.356C428.135 529.148 423.265 533.908 417.406 536.955C407.337 542.191 395.176 541.891 385.448 536.099C381.211 533.576 377.599 530.128 374.881 526.014Z" stroke="#744F06" stroke-width="7"/>
<path d="M342 98.4782C331 129.5 305.959 162 261.5 162C217.041 162 188.5 129.5 181 98.4782C173.5 68.4564 217.041 62 261.5 62C305.959 62 353 67.4564 342 98.4782Z" fill="black"/>
<path d="M363 56C393.5 56 317.781 112 262 112C206.219 112 121.5 56 161 56C143.886 26.0498 204.065 17.7961 254.295 2.44416C259.314 0.910191 264.668 0.950523 269.683 2.49676C316.152 16.8237 381.457 24.766 363 56Z" fill="black"/>
<path d="M273.794 94.9074C265.177 99.3796 254.773 99.1288 246.427 94.1695V94.1695C242.79 92.0085 239.689 89.0538 237.354 85.5259L234.67 81.4702C230.637 75.3751 228.008 68.4598 226.975 61.2243L225.865 53.4601C225.275 49.3244 224.093 45.2948 222.358 41.4945L217.515 30.887C215.916 27.3867 219.459 23.7513 223 25.2592L225.768 26.4385C230.11 28.2879 235.069 27.9912 239.159 25.6373L240.843 24.6683C244.749 22.4203 249.591 22.5736 253.347 25.0642V25.0642C257.295 27.6818 262.42 27.7071 266.393 25.1285L266.613 24.9857C270.398 22.5298 275.223 22.3442 279.185 24.502L281.138 25.5655C285.544 27.9653 290.82 28.1631 295.394 26.0998L297.035 25.3593C300.358 23.86 303.755 27.3014 302.212 30.6046L297.321 41.0755C295.419 45.1472 294.198 49.5034 293.707 53.9705L292.612 63.938C292.012 69.4023 290.351 74.6971 287.724 79.5258L285.689 83.2662C282.986 88.2325 278.812 92.303 273.794 94.9074V94.9074Z" fill="#C0820C"/>
<path d="M247.096 76.0194L245.183 73.1234C242.61 69.2273 240.933 64.8087 240.274 60.1863L239.772 56.6639C239.116 52.0634 237.805 47.5806 235.878 43.3519L233.825 38.8459L234.578 39.1674C238.669 40.9137 243.344 40.6336 247.198 38.4114L248.392 37.723C250.011 36.7895 252.019 36.8531 253.575 37.8873C257.537 40.5196 262.685 40.545 266.673 37.9519L266.829 37.8504C268.434 36.8071 270.481 36.7282 272.161 37.6451L273.546 38.4005C277.449 40.531 282.092 40.7946 286.198 39.1434L284.423 42.9503C282.32 47.4629 280.97 52.2897 280.427 57.2389L279.88 62.2251C279.504 65.6512 278.465 68.9713 276.82 72.0001L275.367 74.6766C273.791 77.5781 271.348 79.9683 268.406 81.4981C263.355 84.1246 257.258 83.9703 252.39 81.0719C250.267 79.8081 248.457 78.0809 247.096 76.0194Z" stroke="#744F06" stroke-width="7"/>
</svg>
